<svg width="1200" height="800" viewBox="-48.855 -34.425 423.41 206.55" xmlns="http://www.w3.org/2000/svg" xmlns:xlink="http://www.w3.org/1999/xlink" overflow="hidden"><path d="M0.1 0 325.6 0 325.6 101.1 0.1 101.1Z" fill="#6B2C90"/><path d="M215.9 34.4C215.9 32.1 217.9 30.7 220.9 30.7 224 30.7 226.8 32.7 228.1 35.6L228.8 35.6 228.2 31.2C226.7 30.5 223.4 29.5 220.5 29.5 216 29.5 212.7 32.4 212.7 35.8 212.7 42.9 226.9 44.5 226.9 50.4 226.9 53.6 223.7 55 220.8 55 217.3 55 214.1 52.9 213.2 48.9L212.4 48.9 213.3 55C215.6 55.6 218.7 56.4 221.2 56.4 226.4 56.4 230.2 53 230.2 49.1 230 41.5 215.9 40.2 215.9 34.4M230.7 30 251.6 30 252.2 35.6 251.5 35.6C250.9 32 250.1 31.6 248.5 31.6L242.9 31.6 242.9 51.8C242.9 54 243.6 54.8 246.1 54.8L247 54.8 247 55.6 235.3 55.6 235.3 54.8 236.2 54.8C238.7 54.8 239.4 54 239.4 51.8L239.4 31.6 233.8 31.6C232.2 31.6 231.5 32 230.9 35.6L230.2 35.6ZM209 31C208.4 26.9 207.1 26.6 205.4 26.6L194.4 26.6 194.4 38.6 203 38.6C204.8 38.6 205.6 38.4 205.9 35.5L206.8 35.5 206.8 43.8 205.9 43.8C205.5 40.3 204.6 40.5 202.5 40.5L194.4 40.5 194.4 51C194.4 53.3 195.4 53.7 197.3 53.7L204.7 53.7C208.1 53.7 209.2 53 210.4 48.8L211.3 48.8 210.5 55.5 186.1 55.5 186.1 54.6C190 54.5 190.3 54 190.3 51L190.3 29.5C190.3 26.5 190 25.9 186.1 25.9L186.1 25 209.5 25 209.9 31.1 209 31.1ZM233 80.5 232.3 80.5C231.8 82.9 231.1 83.5 229.1 83.5L219.9 83.5C224.8 79.2 232.3 73.6 232.3 67.7 232.3 63.8 229.3 60.8 225.2 60.8 221 60.8 217.8 63.8 217.3 68.3L217.9 68.3C218.8 65.1 221.3 63 224 63 226.9 63 229.1 65.3 229.1 68.2 229.1 75.2 217.7 83.8 216.7 84.8L216.7 85.9 232.2 85.9 232.5 83.5ZM186.4 85.9 186.4 85C190.1 85 190.3 84.4 190.3 82.4L190.3 64.2C189 65.3 186.7 66.7 185.2 67.4L184.9 66.8C187.3 65.3 190.7 62.3 191.7 61L193.1 61 193.1 81.8C193.1 84.3 193.6 84.8 197.3 84.9L197.3 85.8 186.4 85.8ZM233.4 78.9 233.4 78 245.8 61.1 247 61.1 247 77 250.2 77 250.2 79 247 79 247 86 244.2 86 244.2 79 233.4 79M244.2 64.9 235.4 77 244.2 77ZM208.9 72.3C213.4 74.1 215.4 76.1 215.4 79.2 215.4 83.3 211.7 86.4 207 86.4 202.4 86.4 198.7 83.5 198.7 80 198.7 77.3 200.8 75 205 73.5 201 71.9 199 69.9 199 67.3 199 63.9 202.6 61 206.8 61 211 61 214.5 63.5 214.5 66.6 214.6 69 212.7 70.9 208.9 72.3M205.8 73.8C202.9 75.2 201.1 77.3 201.1 79.8 201.1 83.1 203.7 85.3 207 85.3 210.2 85.3 212.9 83.2 212.9 80.2 212.9 77.6 210.8 75.8 205.8 73.8M206.8 61.8C203.8 61.8 201.3 63.5 201.3 65.9 201.3 68.1 202.5 69.5 208.1 71.7 210.5 70.3 212.2 68.6 212.2 66.4 212.2 63.6 209.8 61.8 206.8 61.8Z" fill="#FFD300"/><path d="M274.4 31 274 24.9 250.6 24.9 250.6 25.8C254.5 25.9 254.8 26.4 254.8 29.4L254.8 50.9C254.8 53.9 254.5 54.4 250.6 54.5L250.6 55.4 275 55.4 275.8 48.7 274.9 48.7C273.7 52.9 272.6 53.6 269.2 53.6L261.8 53.6C260 53.6 258.9 53.2 258.9 50.9L258.9 40.6 267 40.6C269 40.6 270 40.4 270.4 43.9L271.3 43.9 271.3 35.6 270.4 35.6C270.2 38.5 269.3 38.7 267.5 38.7L258.9 38.7 258.9 26.7 269.9 26.7C271.6 26.7 272.9 27 273.5 31.1L274.4 31.1M110.7 24.9 110.7 25.8C114.6 25.9 114.9 26.4 114.9 29.4L114.9 49 94.3 24.9 86.9 24.9 86.9 25.8C88.6 25.8 89.5 26.2 90.7 27L90.7 51.2C90.7 53.1 90 54.4 88.3 54.4 87 54.4 86.4 52.9 85.7 51.4L74.2 24.9 70.7 24.9 60.1 49.7C58.2 53.8 57.9 54.5 56.8 54.5 55.5 54.5 55.1 53.4 54.9 50.1L53.4 28.4C53.4 26.5 54 25.8 57.7 25.8L57.7 24.9 49.4 24.9 38.6 49.8 27.7 24.9 19 24.9 19 25.8C22.7 25.8 23.3 26.4 23.3 28.4L22 49.4C21.8 53.9 21.3 54.7 17.7 54.7L17.7 55.6 28 55.6 28 54.7C25.8 54.6 23.9 54.1 24.1 51.5L25.4 29.3 25.5 29.3 37 55.6 38.1 55.6 49.3 29.3 49.4 29.3 50.8 51.4C51 54 48.7 54.7 46.4 54.7L46.4 55.6 65.4 55.6 65.4 54.7 65.2 54.7C62.5 54.7 61.2 54.2 61.2 52.9 61.2 52.2 61.8 50.7 62.2 49.8L64.9 43.3 78 43.3 81.2 51C81.4 51.5 81.7 52.2 81.7 53 81.7 54.4 80.7 54.7 77.9 54.7L77.2 54.7 77.2 55.6 97.3 55.6 97.3 54.7C93.1 54.7 92.9 54 92.9 50.4L92.9 29.2 115.8 55.9 117.1 55.9 117.1 28.4C117.1 26.5 117.3 25.8 121 25.8L121 24.9ZM65.9 41.3 71.5 27.9 77.1 41.3ZM185.4 54.6 185.4 55.5 173.2 55.5 173.2 54.6C176.9 54.5 177.4 54 177.4 51.4L177.4 40.6 159.3 40.6 159.3 51C159.3 54 159.6 54.5 163.5 54.6L163.5 55.5 151.3 55.5 151.3 54.6C155 54.6 155.2 54 155.2 52L155.2 28.4C155.2 26.5 155 25.8 151.3 25.8L151.3 24.9 163.5 24.9 163.5 25.8C159.6 25.9 159.3 26.4 159.3 29.4L159.3 38.6 177.4 38.6 177.4 29C177.4 26.4 176.9 25.9 173.2 25.8L173.2 24.9 185.4 24.9 185.4 25.8C181.7 25.8 181.5 26.4 181.5 28.4L181.5 52C181.5 54 181.7 54.6 185.4 54.6ZM137.7 24.2C142.9 24.2 146.7 25.9 149 26.9L149.4 33 148.5 33C146.9 28.4 143.5 25.4 138.1 25.4 129.9 25.4 125.8 31.8 125.8 40 125.8 48.9 131.2 54.9 138.7 54.9 140.9 54.9 146.6 53.4 149.9 47.4L150.8 47.4 148.4 53.2C145.5 54.6 143.1 56.2 137.3 56.2 127.3 56.2 121.3 49.6 121.3 40.5 121.3 31.1 127.4 24.2 137.7 24.2ZM304.8 49.8 300.9 46.1C298.6 43.8 297.1 42.7 295.3 41.3 299.4 40.1 301.9 37 301.9 33.3 301.9 28.2 297.8 24.5 288.6 24.5 285.4 24.5 284.4 24.5 282.4 24.7 280.4 24.8 277.3 25 276.2 25L276.2 25.9 277.3 25.9C280.2 25.9 281 26.8 281 29.9L281 50.6C281 53.9 280 54.7 277 54.7L276.2 54.7 276.2 55.6 290.2 55.6 290.2 54.7 289.1 54.7C286.3 54.7 285.1 54 285.1 51L285.1 42.8C285.9 42.9 286.5 42.9 287.6 42.9 288.9 42.9 289.7 42.9 290.9 42.8 294.7 45 297.6 48.3 299.4 49.9 303.9 54.2 305 56 313.6 55.6L313.6 54.7C309.7 54.4 307.7 52.8 304.8 49.8ZM288 41.6C286.9 41.6 286.1 41.6 284.9 41.5L284.9 25.7C285.8 25.6 286.4 25.6 287.4 25.6 295 25.6 297.1 29 297.1 33.6 297.2 39.5 293.5 41.6 288 41.6ZM304.8 49.8 300.9 46.1C298.6 43.8 297.1 42.7 295.3 41.3 299.4 40.1 301.9 37 301.9 33.3 301.9 28.2 297.8 24.5 288.6 24.5 285.4 24.5 284.4 24.5 282.4 24.7 280.4 24.8 277.3 25 276.2 25L276.2 25.9 277.3 25.9C280.2 25.9 281 26.8 281 29.9L281 50.6C281 53.9 280 54.7 277 54.7L276.2 54.7 276.2 55.6 290.2 55.6 290.2 54.7 289.1 54.7C286.3 54.7 285.1 54 285.1 51L285.1 42.8C285.9 42.9 286.5 42.9 287.6 42.9 288.9 42.9 289.7 42.9 290.9 42.8 294.7 45 297.6 48.3 299.4 49.9 303.9 54.2 305 56 313.6 55.6L313.6 54.7C309.7 54.4 307.7 52.8 304.8 49.8ZM288 41.6C286.9 41.6 286.1 41.6 284.9 41.5L284.9 25.7C285.8 25.6 286.4 25.6 287.4 25.6 295 25.6 297.1 29 297.1 33.6 297.2 39.5 293.5 41.6 288 41.6Z" fill="#FFFFFF"/><path d="M7.5 114.3 7.5 130.8 5.5 130.8 5.5 114.3 0 114.3 0 112.5 13 112.5 13 114.3 7.5 114.3M24.1 130.8 24.1 122.1C24.1 120 23.5 118.8 21.6 118.8 19.2 118.8 17.5 121.2 17.5 124.4L17.5 130.9 15.5 130.9 15.5 111.2 17.5 111.2 17.5 117.8C17.5 118.7 17.4 119.8 17.3 120.5L17.4 120.5C18.2 118.5 19.9 117.3 22.2 117.3 25.3 117.3 26.2 119.2 26.2 121.6L26.2 131 24.1 131M35 118.7C33.1 118.7 31.8 120.1 31.4 122.2L38.2 122.2C38.3 120.1 37.1 118.7 35 118.7M40.3 123.7 31.3 123.7C31.2 127.7 32.8 129.4 35.8 129.4 37.2 129.4 38.7 129 39.7 128.5L39.9 130.2C38.7 130.7 37.1 131 35.5 131 31.4 131 29.3 128.8 29.3 124.1 29.3 120.1 31.5 117.1 35.2 117.1 38.9 117.1 40.4 119.7 40.4 122.6 40.4 122.9 40.4 123.3 40.3 123.7ZM55.7 131C50 131 49 127.8 49 124.7L49 112.5 51.1 112.5 51.1 124.5C51.1 127.1 52 129.3 55.9 129.3 59.3 129.3 60.9 127.9 60.9 124L60.9 112.5 62.9 112.5 62.9 123.8C62.9 128.6 60.5 131 55.7 131M75.5 130.8 75.5 122.1C75.5 120 74.9 118.8 73 118.8 70.6 118.8 68.9 121.2 68.9 124.4L68.9 130.9 66.9 130.9 66.9 117.5 68.9 117.5C68.9 118.4 68.8 119.7 68.7 120.5L68.8 120.5C69.6 118.6 71.3 117.2 73.6 117.2 76.7 117.2 77.6 119.1 77.6 121.5L77.6 130.9 75.5 130.9M81.4 130.8 81.4 117.4 83.4 117.4 83.4 130.8 81.4 130.8M82.4 114.9C81.6 114.9 81 114.3 81 113.5 81 112.7 81.6 112.1 82.4 112.1 83.2 112.1 83.8 112.7 83.8 113.5 83.9 114.3 83.2 114.9 82.4 114.9ZM92.8 130.8 90.7 130.8 85.6 117.4 87.9 117.4 91 126.2C91.3 127 91.5 127.8 91.8 128.6 92 127.9 92.3 127.1 92.5 126.3L95.7 117.4 98 117.4 92.8 130.8M104.3 118.7C102.4 118.7 101.1 120.1 100.7 122.2L107.5 122.2C107.6 120.1 106.4 118.7 104.3 118.7M109.6 123.7 100.6 123.7C100.5 127.7 102.1 129.4 105.1 129.4 106.5 129.4 108 129 109 128.5L109.2 130.2C108 130.7 106.4 131 104.8 131 100.7 131 98.6 128.8 98.6 124.1 98.6 120.1 100.8 117.1 104.5 117.1 108.2 117.1 109.7 119.7 109.7 122.6 109.7 122.9 109.7 123.3 109.6 123.7ZM119.3 119.1C116.3 118.6 114.9 120.9 114.9 125.4L114.9 130.8 112.9 130.8 112.9 117.4 114.9 117.4C114.9 118.3 114.8 119.6 114.6 120.8 115.1 118.8 116.5 116.8 119.4 117.1L119.3 119.1M124 131C123 131 122 130.9 121.2 130.7L121.3 128.8C122.2 129 123.2 129.2 124.3 129.2 126.2 129.2 127.6 128.3 127.6 126.9 127.6 123.7 121.1 125.7 121.1 120.9 121.1 118.7 122.9 117 126.3 117 127.1 117 128.1 117.1 128.9 117.3L128.8 119.1C127.9 118.8 126.9 118.6 126 118.6 124 118.6 123.1 119.4 123.1 120.7 123.1 123.9 129.7 122.1 129.7 126.7 129.6 129.2 127.5 131 124 131M132.7 130.8 132.7 117.4 134.7 117.4 134.7 130.8 132.7 130.8M133.8 114.9C133 114.9 132.4 114.3 132.4 113.5 132.4 112.7 133 112.1 133.8 112.1 134.6 112.1 135.2 112.7 135.2 113.5 135.2 114.3 134.5 114.9 133.8 114.9ZM143.1 131C140.4 131 139.6 129.8 139.6 127L139.6 119 136.7 119 136.7 117.4 139.6 117.4 139.6 112.9 141.6 112.3 141.6 117.3 145.5 117.3 145.5 118.9 141.6 118.9 141.6 126.1C141.6 128.5 142 129.1 143.6 129.1 144.3 129.1 145 129 145.5 128.9L145.5 130.7C144.9 130.9 144 131 143.1 131M153 132.2C151.4 136.3 150.2 137.7 147.3 137.7 146.8 137.7 146.1 137.6 145.6 137.6L145.8 135.7C146.3 135.9 146.9 136 147.5 136 149.1 136 149.9 135.2 151 132.4L151.6 130.8 146.5 117.4 148.8 117.4 151.6 125.1C152 126.3 152.3 127.3 152.6 128.3 152.8 127.4 153.4 125.8 154 124.2L156.4 117.4 158.6 117.4 153 132.2M171.1 118.8C169 118.8 167 120.4 167 124 167 127.4 168.5 129.3 171.1 129.3 173.2 129.3 175.1 127.7 175.1 124 175.1 120.7 173.7 118.8 171.1 118.8M170.8 131C167.2 131 164.9 128.8 164.9 124.1 164.9 120.3 167.3 117.1 171.3 117.1 174.6 117.1 177.3 118.9 177.3 123.8 177.2 127.9 174.7 131 170.8 131ZM188.1 112.9C187.4 112.7 186.7 112.6 186 112.6 183.9 112.6 183 113.8 183 116.4L183 117.4 187 117.4 187 119 183 119 183 130.8 181 130.8 181 119 178.1 119 178.1 117.4 181 117.4 181 116.5C181 112.7 182.9 111 186.1 111 186.9 111 187.6 111.1 188.3 111.2L188.1 112.9M212.5 130.8 210.9 119.5C210.6 117.3 210.4 115.9 210.3 114.9L210.2 114.9C210 115.7 209.7 116.7 209.3 118L205 130.8 202.6 130.8 198.5 118.8C198 117.5 197.6 116 197.3 114.9 197.2 116.4 197 117.8 196.8 119.7L195.5 130.7 193.4 130.7 196 112.4 198.6 112.4 202.8 124.7C203.3 126 203.6 127.2 203.8 128.2L203.9 128.2C204.2 127 204.4 126.1 204.9 124.8L209.2 112.3 211.9 112.3 214.6 130.6 212.5 130.6M225.2 124.5C220.1 124.5 219.1 126.1 219.1 127.4 219.1 128.6 220 129.4 221.3 129.4 223.7 129.4 225.2 127 225.2 124.7L225.2 124.5M225.3 130.8C225.3 129.8 225.3 128.7 225.4 128L225.3 128C224.7 129.7 222.9 131.1 220.6 131.1 218.5 131.1 216.9 130 216.9 127.8 216.9 125 219.8 123 225.1 123L225.1 121.9C225.1 119.9 224.4 118.7 222 118.7 220.7 118.7 219.1 119.1 217.9 119.9L217.7 118.1C219 117.5 220.5 117.1 222.4 117.1 226.1 117.1 227.2 118.9 227.2 121.5L227.2 126.8C227.2 128.1 227.2 129.6 227.3 130.8ZM239.8 130.8 239.8 122.1C239.8 120 239.2 118.8 237.3 118.8 234.9 118.8 233.2 121.2 233.2 124.4L233.2 130.9 231.2 130.9 231.2 117.5 233.2 117.5C233.2 118.4 233.1 119.7 233 120.5L233.1 120.5C233.9 118.6 235.6 117.2 237.9 117.2 241 117.2 241.9 119.1 241.9 121.5L241.9 130.9 239.8 130.9M250.7 131C247.7 131 244.9 129.7 244.9 124.6 244.9 120.2 247.1 117.2 251.5 117.2 252.6 117.2 253.7 117.4 254.7 117.7L254.5 119.5C253.6 119.1 252.6 118.9 251.4 118.9 248.5 118.9 247.1 121 247.1 124.3 247.1 127.1 248 129.3 251.2 129.3 252.4 129.3 253.7 129 254.6 128.5L254.8 130.3C253.8 130.6 252.4 131 250.7 131M266.2 130.8 266.2 122.1C266.2 120 265.6 118.8 263.7 118.8 261.3 118.8 259.6 121.2 259.6 124.4L259.6 130.9 257.6 130.9 257.6 111.2 259.6 111.2 259.6 117.8C259.6 118.7 259.5 119.8 259.4 120.5L259.5 120.5C260.3 118.5 262 117.3 264.3 117.3 267.4 117.3 268.3 119.2 268.3 121.6L268.3 131 266.2 131M277.1 118.7C275.2 118.7 273.9 120.1 273.5 122.2L280.3 122.2C280.4 120.1 279.2 118.7 277.1 118.7M282.4 123.7 273.4 123.7C273.3 127.7 274.9 129.4 277.9 129.4 279.3 129.4 280.8 129 281.8 128.5L282 130.2C280.8 130.7 279.2 131 277.6 131 273.5 131 271.4 128.8 271.4 124.1 271.4 120.1 273.6 117.1 277.3 117.1 281 117.1 282.5 119.7 282.5 122.6 282.5 122.9 282.5 123.3 282.4 123.7ZM287.8 131C286.8 131 285.8 130.9 285 130.7L285.1 128.8C286 129 287 129.2 288.1 129.2 290 129.2 291.4 128.3 291.4 126.9 291.4 123.7 284.9 125.7 284.9 120.9 284.9 118.7 286.7 117 290.1 117 290.9 117 291.9 117.1 292.7 117.3L292.6 119.1C291.7 118.8 290.7 118.6 289.8 118.6 287.8 118.6 286.9 119.4 286.9 120.7 286.9 123.9 293.5 122.1 293.5 126.7 293.4 129.2 291.3 131 287.8 131M300.8 131C298.1 131 297.3 129.8 297.3 127L297.3 119 294.4 119 294.4 117.4 297.3 117.4 297.3 112.9 299.3 112.3 299.3 117.3 303.2 117.3 303.2 118.9 299.3 118.9 299.3 126.1C299.3 128.5 299.7 129.1 301.3 129.1 302 129.1 302.7 129 303.2 128.9L303.2 130.7C302.6 130.9 301.6 131 300.8 131M310.8 118.7C308.9 118.7 307.6 120.1 307.2 122.2L314 122.2C314.1 120.1 312.8 118.7 310.8 118.7M316.1 123.7 307.1 123.7C307 127.7 308.6 129.4 311.6 129.4 313 129.4 314.5 129 315.5 128.5L315.7 130.2C314.5 130.7 312.9 131 311.3 131 307.2 131 305.1 128.8 305.1 124.1 305.1 120.1 307.3 117.1 311 117.1 314.7 117.1 316.2 119.7 316.2 122.6 316.1 122.9 316.1 123.3 316.1 123.7ZM325.6 119.1C322.6 118.6 321.2 120.9 321.2 125.4L321.2 130.8 319.2 130.8 319.2 117.4 321.2 117.4C321.2 118.3 321.1 119.6 320.9 120.8 321.4 118.8 322.8 116.8 325.7 117.1L325.6 119.1" fill="#737373"/></svg>