<?xml version="1.0" encoding="utf-8"?>
<!-- Generator: Adobe Illustrator 23.1.1, SVG Export Plug-In . SVG Version: 6.00 Build 0)  -->
<svg version="1.1" id="Layer_1" xmlns="http://www.w3.org/2000/svg" xmlns:xlink="http://www.w3.org/1999/xlink" x="0px" y="0px"
	 viewBox="0 0 445 73" style="enable-background:new 0 0 445 73;" xml:space="preserve">
<style type="text/css">
	.st0{fill:none;stroke:#000000;stroke-width:1.7;stroke-miterlimit:3.8637;}
	.st1{fill:#002F67;}
	.st2{fill:#A90F14;}
	.st3{fill:#F7941E;}
	.st4{enable-background:new    ;}
</style>
<g id="Guides">
</g>
<g id="Foreground">
	<g>
		<g id="UNISA">
			<path id="U" d="M18.9,31.3V14.7c0-0.5-0.7-1.2-1.7-1.2h-0.4l-0.1-1h2.4h2.8v18.9c0,6.5,3.9,10.2,9.2,10.2c5.4,0,9.3-3.8,9.3-10.2
				V12.5h2.9v18.9c0,9.2-6.5,12.9-12.3,12.9C25.4,44.2,18.9,40.5,18.9,31.3z"/>
			<path id="N" d="M75.5,12.5h2.8v31.2h-3.2L56,17.2v26.4h-3V12.4h3l19.4,26.9V14.6c0-0.5-0.7-1.2-1.7-1.2h-0.4l-0.1-1L75.5,12.5z"
				/>
			<path id="I" d="M88.2,43.7V15.9l-0.1-1.3c0-0.5-0.7-1.2-1.7-1.2H86l-0.1-1h2.4h2.8v3.5v27.7h-2.9C88.2,43.6,88.2,43.7,88.2,43.7z
				"/>
			<path id="S" d="M116.6,35.3c0,5.5-4.7,8.9-9.7,8.9c-2.7,0-5.2-0.8-7.6-2.1l0.4-3.1c2.5,1.6,4.3,2.5,7.2,2.5
				c3.7,0,6.6-2.5,6.6-6.4c0-2.8-2.3-4.3-4.5-5.4c-4.1-2.1-10-3.8-10-9.6c0-5,4.3-8.3,9.5-8.3c2.4,0,4.7,0.6,6.9,1.6l-0.4,2.9
				c-2.1-1.1-4-1.8-6.3-1.8c-3.4,0-6.6,1.9-6.6,5.5c0,2.8,2.4,4.1,4.5,5.2C111.1,27.4,116.6,29,116.6,35.3z"/>
			<path id="A" d="M149.9,42.6h0.5l0.1,1H149h-2.9l-4-9.5h-15.2l-4.1,9.5h-3.1l13.6-31.1h2.6L148.5,42
				C148.8,42.3,149.4,42.6,149.9,42.6z M134.6,16.2l-6.5,15.3h13L134.6,16.2z"/>
		</g>
		<line class="st0" x1="160.8" y1="2.5" x2="160.8" y2="43.7"/>
		<g id="FLAMES">
			<path id="FLAME-BLUE" class="st1" d="M232.6,16.1c-31,7.8-49.1-31.7-64.7-1C184.5,2.6,211.7,26.3,232.6,16.1z"/>
			<path id="FLAME-RED" class="st2" d="M232.9,7.3c-27.4,15.2-66.3-15.8-65.7,11.2C178.4,8.3,220.2,23.5,232.9,7.3z"/>
			<path id="FLAME-ORANGE" class="st3" d="M218.5,8C173.3-3.4,167,4.3,167.3,18.4C167.2,18.4,170-3.1,218.5,8z"/>
		</g>
		<g id="LONG-NAME-LOWERCASE">
			<g id="LONG-NAME-LOWERCASE-1ST-LINE">
				<path id="u" d="M170.8,31H170v2.7c-0.3,0.4-0.5,0.9-1.1,0.9s-0.9-0.4-0.9-1.2V31h-0.8v2.6c0,0.9,0.5,1.6,1.5,1.6
					c0.7,0,1.1-0.3,1.4-0.8v0.7h0.8L170.8,31C170.9,31,170.8,31,170.8,31z"/>
				<path id="n" d="M172,35.1h0.8v-2.7c0.3-0.4,0.5-0.9,1.1-0.9s0.9,0.4,0.9,1.2v2.4h0.8v-2.6c0-0.9-0.5-1.6-1.5-1.6
					c-0.7,0-1.1,0.3-1.4,0.8V31H172V35.1L172,35.1z"/>
				<path id="i" d="M176.7,29v0.9h0.8V29H176.7z M177.5,35.1V31h-0.8v4.1H177.5z"/>
				<polygon id="v" points="178.1,31 179.7,35.1 180.5,35.1 182.2,31 181.3,31 180.2,34.3 178.9,31 				"/>
				<path id="e" d="M186,34.2c-0.5,0.3-0.9,0.4-1.4,0.4c-0.8,0-1.3-0.6-1.4-1.5h3v-0.3c0-1.1-0.8-1.9-1.8-1.9c-1.2,0-2,0.9-2,2.1
					c0,1.3,0.7,2.2,2.1,2.2c0.6,0,1.1-0.1,1.6-0.4L186,34.2z M183.3,32.6c0-0.6,0.4-1.1,1.1-1.1s1,0.5,1.1,1.1H183.3z"/>
				<path id="r" d="M187.8,31.9V31h-0.7v4.1h0.8v-2.3c0.1-0.7,0.5-1.2,1.1-1.2c0.2,0,0.4,0,0.6,0.3l0.2-0.7
					c-0.3-0.2-0.4-0.2-0.7-0.2C188.6,30.9,188.1,31.2,187.8,31.9z"/>
				<path id="s" d="M191.7,30.9c-0.8,0-1.6,0.4-1.6,1.2c0,1.3,2.1,1.1,2.1,1.9c0,0.4-0.4,0.6-0.8,0.6c-0.5,0-0.8-0.1-1.2-0.4v0.6
					c0.4,0.3,0.8,0.3,1.3,0.3c0.7,0,1.5-0.4,1.5-1.2c0-1.4-2.1-1.2-2.1-1.9c0-0.4,0.4-0.6,0.8-0.6s0.7,0.1,1.1,0.3v-0.6
					C192.4,31,192,30.9,191.7,30.9z"/>
				<path id="i2" d="M193.9,29v0.9h0.8V29H193.9z M194.6,35.1V31h-0.8v4.1H194.6z"/>
				<path id="t" d="M196.1,30.2V31h-0.7v0.5h0.7v2.4c0,0.8,0.4,1.2,1.1,1.2c0.4,0,0.5-0.1,0.9-0.2v-0.6c-0.3,0.1-0.4,0.2-0.6,0.2
					c-0.4,0-0.5-0.3-0.5-0.8v-2.2h1v-0.6h-1v-1.3h-0.3L196.1,30.2z"/>
				<path id="y" d="M199.9,34.9l-0.2,0.4c-0.2,0.5-0.4,0.9-0.8,0.9c-0.2,0-0.4,0-0.6-0.1v0.6c0.3,0.1,0.6,0.1,0.8,0.1
					c0.7,0,1.1-0.7,1.4-1.4l1.8-4.5h-0.8l-1.2,3.2l-1.2-3.2h-0.8L199.9,34.9z"/>
			</g>
			<g id="LONG-NAME-LOWERCASE-2ND-LINE">
				<path id="o" d="M169.2,43.7c1.3,0,2.1-1,2.1-2.1c0-1.2-0.8-2.1-2.1-2.1s-2.1,1-2.1,2.1C167,42.8,167.8,43.7,169.2,43.7z
					 M169.2,43.1c-0.8,0-1.3-0.7-1.3-1.6c0-0.8,0.5-1.5,1.3-1.5s1.3,0.7,1.3,1.5C170.5,42.4,170,43.1,169.2,43.1z"/>
				<path id="f" d="M172.4,43.7h0.8v-3.5h0.8v-0.6h-0.8v-0.4c0-0.6,0.1-1.1,0.7-1.1c0.2,0,0.4,0,0.5,0.1v-0.6
					c-0.2-0.1-0.5-0.1-0.8-0.1c-1,0-1.3,0.6-1.3,1.7v0.4h-0.7v0.6h0.7L172.4,43.7L172.4,43.7z"/>
				<path id="s2" d="M178.6,39.4c-0.8,0-1.6,0.4-1.6,1.2c0,1.3,2.1,1.1,2.1,1.9c0,0.4-0.4,0.6-0.8,0.6s-0.8-0.1-1.2-0.4v0.6
					c0.4,0.3,0.8,0.3,1.3,0.3c0.7,0,1.5-0.4,1.5-1.2c0-1.4-2.1-1.2-2.1-1.9c0-0.4,0.4-0.6,0.8-0.6s0.7,0.1,1.1,0.3v-0.6
					C179.4,39.5,179,39.4,178.6,39.4z"/>
				<path id="o2" d="M182.8,43.7c1.3,0,2.1-1,2.1-2.1c0-1.2-0.8-2.1-2.1-2.1s-2.1,1-2.1,2.1C180.6,42.8,181.4,43.7,182.8,43.7z
					 M182.8,43.1c-0.8,0-1.3-0.7-1.3-1.6c0-0.8,0.5-1.5,1.3-1.5s1.3,0.7,1.3,1.5C184.1,42.4,183.6,43.1,182.8,43.1z"/>
				<path id="u2" d="M189.4,39.5h-0.8v2.8c-0.3,0.4-0.5,0.9-1.1,0.9s-0.9-0.4-0.9-1.2v-2.5h-0.8v2.6c0,0.9,0.5,1.6,1.5,1.6
					c0.7,0,1.1-0.3,1.4-0.8v0.7h0.8L189.4,39.5L189.4,39.5z"/>
				<path id="t2" d="M190.9,38.7v0.8h-0.7v0.6h0.7v2.4c0,0.8,0.4,1.2,1.1,1.2c0.4,0,0.5-0.1,0.9-0.2v-0.6c-0.3,0.1-0.4,0.2-0.6,0.2
					c-0.4,0-0.5-0.3-0.5-0.8v-2.2h1v-0.6h-1v-1.3h-0.3L190.9,38.7z"/>
				<path id="h" d="M193.6,43.7h0.8V41c0.3-0.4,0.5-0.9,1.1-0.9s0.9,0.4,0.9,1.2v2.4h0.8v-2.6c0-0.9-0.5-1.6-1.5-1.6
					c-0.7,0-1.1,0.3-1.3,0.8v-2.7h-0.8V43.7z"/>
				<path id="s3" d="M204,43.7c0-0.2-0.1-0.4-0.1-0.8v-2.1c0-0.4-0.1-0.8-0.4-1c-0.3-0.3-0.8-0.4-1.2-0.4c-0.5,0-0.9,0.1-1.4,0.4
					v0.7c0.5-0.4,0.8-0.4,1.3-0.4c0.6,0,0.8,0.2,0.8,0.8c0,0,0,0.3,0,0.4c-1.3,0-2.5,0.4-2.5,1.5c0,0.5,0.4,1.1,1.3,1.1
					c0.5,0,1-0.3,1.3-0.7v0.6L204,43.7L204,43.7z M203.2,41.6v1c-0.3,0.4-0.5,0.7-1.1,0.7c-0.4,0-0.7-0.3-0.7-0.7
					C201.4,41.8,202.2,41.6,203.2,41.6z"/>
				<path id="f2" d="M205.3,43.7h0.8v-3.5h0.8v-0.6h-0.8v-0.4c0-0.6,0.1-1.1,0.7-1.1c0.2,0,0.4,0,0.5,0.1v-0.6
					c-0.2-0.1-0.5-0.1-0.8-0.1c-1,0-1.3,0.6-1.3,1.7v0.4h-0.7v0.6h0.7L205.3,43.7L205.3,43.7z"/>
				<path id="r2" d="M208.3,40.4v-0.9h-0.7v4.1h0.8v-2.2c0.1-0.7,0.5-1.2,1.1-1.2c0.2,0,0.4,0,0.6,0.3l0.2-0.7
					c-0.3-0.2-0.4-0.2-0.7-0.2C209,39.4,208.6,39.8,208.3,40.4z"/>
				<path id="i3" d="M210.8,37.5v1h0.8v-1H210.8z M211.6,43.7v-4.2h-0.8v4.1h0.8V43.7z"/>
				<path id="c" d="M214.6,43.7c0.4,0,0.7,0,1.1-0.2v-0.6c-0.4,0.1-0.7,0.2-1,0.2c-0.9,0-1.4-0.6-1.4-1.5s0.5-1.6,1.4-1.6
					c0.4,0,0.6,0,1,0.2v-0.6c-0.3-0.1-0.6-0.2-1.1-0.2c-1.3,0-2.1,0.9-2.1,2.2C212.5,42.8,213.3,43.7,214.6,43.7z"/>
				<path id="a2" d="M219.8,43.7c0-0.2-0.1-0.4-0.1-0.8v-2.1c0-0.4-0.1-0.8-0.4-1c-0.3-0.3-0.8-0.4-1.2-0.4c-0.5,0-0.9,0.1-1.4,0.4
					v0.7c0.5-0.4,0.8-0.4,1.3-0.4c0.6,0,0.8,0.2,0.8,0.8c0,0,0,0.3,0,0.4c-1.3,0-2.5,0.4-2.5,1.5c0,0.5,0.4,1.1,1.3,1.1
					c0.5,0,1-0.3,1.3-0.7v0.6L219.8,43.7L219.8,43.7z M219,41.6v1c-0.3,0.4-0.5,0.7-1.1,0.7c-0.4,0-0.7-0.3-0.7-0.7
					C217.2,41.8,218,41.6,219,41.6z"/>
			</g>
		</g>
	</g>
</g>
<g class="st4">
	<path d="M20.4,54.5h5.5c5.3,0,7.3,3,7.3,6.8c0,6.6-4.4,10-9.9,10h-5.2L20.4,54.5z M23.3,69.3c4.5,0,7.5-2.9,7.5-7.7
		c0-3.5-2.1-5.1-5.4-5.1h-3l-1.7,12.9L23.3,69.3L23.3,69.3z"/>
	<path d="M43.4,70.5c-1.4,0.7-2.7,1.1-4.2,1.1c-3.2,0-4.8-1.9-4.8-4.8c0-3.3,1.8-7,6-7c2.5,0,4.1,1.7,4.1,4.4c0,0.3,0,0.6-0.1,0.9
		l-0.1,0.8h-7.8c0,0.2,0,0.4,0,0.6c0,2,1.1,3.5,3.1,3.5c1.3,0,2.4-0.4,3.8-1.1V70.5z M42.5,64.5c0-1.9-0.6-3.1-2.3-3.1
		c-1.7,0-3,1.5-3.3,3.1H42.5z"/>
	<path d="M47.9,61.7H46l0.2-1.7h1.9l0.2-1.2c0.4-2.7,1.4-4.5,3.9-4.5c0.6,0,1.4,0.2,1.8,0.4l-0.4,1.6c-0.3-0.2-0.7-0.3-1.2-0.3
		c-1.5,0-1.9,1.3-2.1,2.9l-0.1,1h2.2l-0.2,1.7H50l-1.3,9.6h-2.1L47.9,61.7z M52.5,71.3L54,60h2.1l-1.5,11.3H52.5z M56.7,54.5
		L56.4,57h-2.1l0.4-2.5H56.7z"/>
	<path d="M59,60h2l-0.3,1.9c1-1.3,2-2.1,3.9-2.1c2.2,0,3.3,1.3,3.3,3.4c0,0.3,0,0.6-0.1,0.9l-0.9,7.3h-2.1l0.9-6.6
		c0-0.3,0.1-0.6,0.1-0.9c0-1.5-0.6-2.4-2-2.4c-1.5,0-2.4,1.1-3.3,2.4l-1,7.5h-2L59,60z"/>
	<path d="M78.7,70.5c-1.4,0.7-2.7,1.1-4.2,1.1c-3.2,0-4.8-1.9-4.8-4.8c0-3.3,1.8-7,6-7c2.5,0,4.1,1.7,4.1,4.4c0,0.3,0,0.6-0.1,0.9
		l-0.1,0.8h-7.8c0,0.2,0,0.4,0,0.6c0,2,1.1,3.5,3.1,3.5c1.3,0,2.4-0.4,3.8-1.1V70.5z M77.8,64.5c0-1.9-0.6-3.1-2.3-3.1
		c-1.7,0-3,1.5-3.3,3.1H77.8z"/>
	<path d="M92,56.4h0.7L92.2,60h2.5l-0.2,1.7H92l-0.8,6.1c0,0.3-0.1,0.6-0.1,0.9c0,0.8,0.3,1.2,1.2,1.2c0.6,0,1-0.2,1.7-0.4l-0.1,1.6
		c-0.8,0.3-1.4,0.5-2.3,0.5c-1.5,0-2.5-0.9-2.5-2.6c0-0.2,0-0.5,0-0.7l0.9-6.5h-1.9l0.2-1.7h1.9l0.3-2.2L92,56.4z"/>
	<path d="M95.3,66.6c0-5.2,3.9-6.8,6.4-6.8c3.2,0,4.9,2.1,4.9,4.9c0,3.4-2.3,6.9-6.5,6.9C97.1,71.5,95.3,69.4,95.3,66.6z
		 M104.5,64.8c0-1.9-1.1-3.4-3-3.4c-2,0-4,1.9-4,5c0,2,1.1,3.5,2.9,3.5C102.9,69.9,104.5,67.4,104.5,64.8z"/>
	<path d="M117.6,71.3h-2.1l0.9-6.6c0-0.3,0.1-0.6,0.1-0.9c0-1.5-0.6-2.4-2-2.4c-1.5,0-2.4,1.1-3.3,2.4l-1,7.5h-2l1.5-11.3h2
		l-0.3,1.9c1-1.3,2-2.1,3.9-2.1c1.8,0,2.9,0.9,3.2,2.4c1-1.3,2.3-2.4,4.2-2.4c2.2,0,3.3,1.3,3.3,3.4c0,0.3,0,0.6-0.1,0.9l-1,7.3h-2
		l0.9-6.6c0-0.3,0-0.6,0-0.9c0-1.5-0.6-2.4-2-2.4c-1.5,0-2.5,1.1-3.3,2.4L117.6,71.3z"/>
	<path d="M127.9,66.6c0-5.2,3.9-6.8,6.4-6.8c3.2,0,4.9,2.1,4.9,4.9c0,3.4-2.3,6.9-6.5,6.9C129.6,71.5,127.9,69.4,127.9,66.6z
		 M137.1,64.8c0-1.9-1.1-3.4-3-3.4c-2,0-4,1.9-4,5c0,2,1.1,3.5,2.9,3.5C135.5,69.9,137.1,67.4,137.1,64.8z"/>
	<path d="M147.3,59.8c0.6,0,1.1,0.1,1.6,0.6l-0.7,1.9c-0.5-0.5-1-0.7-1.5-0.7c-1.4,0-2.7,1.5-3.2,3.4l-0.8,6.2h-2l1.5-11.3h1.9
		l-0.3,2.4C144.9,60.7,146.1,59.8,147.3,59.8z"/>
	<path d="M155.6,59.8c0.6,0,1.1,0.1,1.6,0.6l-0.7,1.9c-0.5-0.5-1-0.7-1.5-0.7c-1.4,0-2.7,1.5-3.2,3.4l-0.8,6.2h-2l1.5-11.3h1.9
		l-0.3,2.4C153.2,60.7,154.4,59.8,155.6,59.8z"/>
	<path d="M156.9,66.6c0-5.2,3.9-6.8,6.4-6.8c3.2,0,4.9,2.1,4.9,4.9c0,3.4-2.3,6.9-6.5,6.9C158.6,71.5,156.9,69.4,156.9,66.6z
		 M166.1,64.8c0-1.9-1.1-3.4-3-3.4c-2,0-4,1.9-4,5c0,2,1.1,3.5,2.9,3.5C164.5,69.9,166.1,67.4,166.1,64.8z"/>
	<path d="M171.6,60l1.6,8.8l4-8.8h1.9l1.6,8.9l4.2-8.9h2.1l-5.6,11.3h-1.9l-1.6-8.9l-4.1,8.9h-1.9L169.6,60
		C169.6,60,171.6,60,171.6,60z"/>
	<path d="M188,71.3h-2.6l0.4-2.7h2.6L188,71.3z"/>
</g>
</svg>
