<?xml version="1.0" encoding="UTF-8"?>
<svg xmlns="http://www.w3.org/2000/svg" xmlns:xlink="http://www.w3.org/1999/xlink" width="780pt" height="235.46pt" viewBox="0 0 780 235.46" version="1.1">
<g id="surface1">
<path style=" stroke:none;fill-rule:evenodd;fill:rgb(13.699341%,12.199402%,12.5%);fill-opacity:1;" d="M 51.242188 129.527344 C 51.242188 159.582031 72.179688 171.449219 90.445313 171.449219 C 109.144531 171.449219 130.21875 159.578125 130.21875 129.527344 L 130.21875 68 L 122.234375 68 L 122.234375 129.527344 C 122.234375 151.363281 108.886719 164.328125 90.445313 164.328125 C 72.421875 164.328125 59.226563 151.355469 59.226563 129.527344 L 59.226563 68 L 50.796875 68 L 43.863281 68.011719 L 44.03125 69.542969 L 44.804688 69.535156 C 48.375 69.535156 51.207031 72.03125 51.242188 74.496094 Z M 50.351563 129.527344 L 50.351563 74.503906 C 50.328125 72.683594 48.066406 70.425781 44.808594 70.425781 L 43.234375 70.4375 L 42.871094 67.125 L 50.796875 67.109375 L 60.113281 67.109375 L 60.113281 129.527344 C 60.113281 150.929688 72.972656 163.4375 90.445313 163.4375 C 108.351563 163.4375 121.347656 150.921875 121.347656 129.527344 L 121.347656 67.109375 L 131.109375 67.109375 L 131.109375 129.527344 C 131.109375 160.167969 109.527344 172.339844 90.445313 172.339844 C 71.78125 172.339844 50.351563 160.164063 50.351563 129.527344 "/>
<path style=" stroke:none;fill-rule:evenodd;fill:rgb(13.699341%,12.199402%,12.5%);fill-opacity:1;" d="M 374.089844 142.84375 C 374.089844 161.1875 358.363281 172.339844 342.160156 172.339844 C 333.148438 172.339844 324.933594 169.519531 317.066406 165.421875 L 318.179688 155.097656 C 326.226563 160.375 332.425781 163.578125 342.160156 163.578125 C 354.398438 163.578125 364.042969 155.445313 364.042969 142.410156 C 364.042969 133.0625 356.332031 128.214844 349.070313 124.535156 C 335.441406 117.632813 315.949219 112.195313 315.949219 92.886719 C 315.949219 76.257813 330.246094 65.25 347.3125 65.25 C 355.1875 65.25 362.835938 67.132813 369.972656 70.4375 L 368.863281 80.128906 C 361.960938 76.550781 355.710938 74.152344 347.882813 74.152344 C 336.691406 74.152344 326 80.363281 326 92.316406 C 326 101.492188 333.859375 106.007813 340.96875 109.464844 C 355.769531 116.65625 374.089844 122.007813 374.089844 142.84375 M 373.203125 142.84375 C 373.203125 122.507813 355.03125 117.285156 340.582031 110.265625 C 333.132813 106.644531 325.113281 101.914063 325.113281 92.316406 C 325.113281 79.652344 336.460938 73.261719 347.882813 73.261719 C 354.53125 73.261719 360.621094 74.925781 368.125 78.746094 L 369.019531 70.972656 C 361.445313 67.523438 353.890625 66.140625 347.3125 66.140625 C 330.597656 66.140625 316.835938 76.886719 316.835938 92.886719 C 316.835938 122.757813 364.9375 117.949219 364.9375 142.410156 C 364.9375 156 354.828125 164.46875 342.160156 164.46875 C 333.515625 164.46875 327.363281 162.105469 318.902344 156.636719 L 318.015625 164.914063 C 325.074219 168.554688 333.210938 171.449219 342.160156 171.449219 C 358.011719 171.449219 373.203125 160.566406 373.203125 142.84375 "/>
<path style=" stroke:none;fill-rule:evenodd;fill:rgb(13.699341%,12.199402%,12.5%);fill-opacity:1;" d="M 237.953125 67.109375 L 247.273438 67.109375 L 247.445313 170.480469 L 236.898438 170.480469 L 173.160156 82.808594 L 173.160156 170.480469 L 163.402344 170.480469 L 163.402344 67.109375 L 173.375 67.109375 L 237.683594 156.351563 L 237.507813 74.503906 C 237.484375 72.683594 235.222656 70.425781 231.96875 70.425781 L 230.390625 70.4375 L 230.03125 67.125 Z M 237.957031 68 L 231.019531 68.011719 L 231.1875 69.542969 L 231.964844 69.535156 C 235.53125 69.535156 238.367188 72.03125 238.398438 74.496094 L 238.578125 159.109375 L 172.921875 68 L 164.292969 68 L 164.292969 169.589844 L 172.273438 169.589844 L 172.273438 80.070313 L 237.351563 169.589844 L 246.558594 169.589844 L 246.382813 68 "/>
<path style=" stroke:none;fill-rule:evenodd;fill:rgb(13.699341%,12.199402%,12.5%);fill-opacity:1;" d="M 431.714844 79.433594 L 410.203125 130.371094 L 453.234375 130.371094 Z M 431.714844 77.144531 L 408.863281 131.261719 L 454.570313 131.261719 Z M 482.746094 167.988281 C 480.683594 167.988281 478.574219 166.679688 477.230469 165.226563 L 435.714844 68 L 428.285156 68 L 383.878906 169.589844 L 392.207031 169.589844 L 405.804688 138.101563 L 457.347656 138.101563 L 470.683594 169.589844 L 479.777344 169.519531 L 483.699219 169.511719 L 483.566406 167.980469 Z M 482.742188 167.097656 L 484.378906 167.082031 L 484.667969 170.398438 L 479.78125 170.410156 L 470.09375 170.484375 L 456.757813 138.988281 L 406.390625 138.988281 L 392.796875 170.480469 L 382.519531 170.480469 L 427.707031 67.109375 L 436.308594 67.109375 L 477.984375 164.734375 C 479.027344 165.832031 480.902344 167.097656 482.742188 167.097656 "/>
<path style=" stroke:none;fill-rule:evenodd;fill:rgb(13.699341%,12.199402%,12.5%);fill-opacity:1;" d="M 90.449219 171.792969 C 71.988281 171.792969 50.800781 159.765625 50.800781 129.425781 L 50.800781 74.390625 C 50.773438 72.253906 48.226563 69.878906 44.8125 69.878906 L 43.636719 69.890625 L 43.375 67.464844 L 50.800781 67.449219 L 59.675781 67.449219 L 59.675781 129.425781 C 59.675781 151.039063 72.703125 163.773438 90.449219 163.773438 C 108.628906 163.773438 121.796875 151.039063 121.796875 129.425781 L 121.796875 67.449219 L 130.671875 67.449219 L 130.671875 129.425781 C 130.671875 159.765625 109.34375 171.792969 90.449219 171.792969 "/>
<path style=" stroke:none;fill-rule:evenodd;fill:rgb(13.699341%,12.199402%,12.5%);fill-opacity:1;" d="M 342.167969 171.792969 C 358.195313 171.792969 373.652344 160.773438 373.652344 142.734375 C 373.652344 109.53125 325.5625 115.683594 325.5625 92.210938 C 325.5625 79.902344 336.582031 73.605469 347.890625 73.605469 C 354.617188 73.605469 360.773438 75.324219 368.503906 79.332031 L 369.503906 70.597656 C 361.773438 67.023438 354.042969 65.589844 347.316406 65.589844 C 330.429688 65.589844 316.398438 76.464844 316.398438 92.785156 C 316.398438 122.984375 364.492188 118.261719 364.492188 142.308594 C 364.492188 155.617188 354.617188 163.917969 342.167969 163.917969 C 333.433594 163.917969 327.28125 161.484375 318.550781 155.761719 L 317.546875 165.066406 C 324.703125 168.785156 333.003906 171.792969 342.167969 171.792969 "/>
<path style=" stroke:none;fill-rule:evenodd;fill:rgb(13.699341%,12.199402%,12.5%);fill-opacity:1;" d="M 246.835938 67.449219 L 237.960938 67.449219 L 230.53125 67.464844 L 230.796875 69.890625 L 231.972656 69.878906 C 235.382813 69.878906 237.933594 72.253906 237.960938 74.390625 L 238.136719 157.621094 L 173.15625 67.449219 L 163.851563 67.449219 L 163.851563 169.933594 L 172.726563 169.933594 L 172.726563 81.335938 L 237.136719 169.933594 L 247.007813 169.933594 "/>
<path style=" stroke:none;fill-rule:evenodd;fill:rgb(13.699341%,12.199402%,12.5%);fill-opacity:1;" d="M 278.800781 170.480469 L 278.800781 78.746094 L 278.527344 74.511719 C 278.503906 72.699219 276.238281 70.425781 272.980469 70.425781 L 271.40625 70.4375 L 271.050781 67.125 L 278.96875 67.105469 L 288.28125 67.105469 L 288.484375 78.726563 L 288.421875 170.480469 Z M 279.6875 169.589844 L 287.53125 169.589844 L 287.597656 78.734375 L 287.40625 68 L 278.972656 68 L 272.039063 68.011719 L 272.203125 69.542969 L 272.980469 69.535156 C 276.546875 69.535156 279.382813 72.019531 279.414063 74.480469 L 279.6875 78.71875 "/>
<path style=" stroke:none;fill-rule:evenodd;fill:rgb(13.699341%,12.199402%,12.5%);fill-opacity:1;" d="M 278.644531 78.628906 L 278.644531 169.929688 L 287.375 169.929688 L 287.441406 78.628906 L 287.242188 67.449219 L 278.371094 67.449219 L 270.941406 67.464844 L 271.207031 69.882813 L 272.382813 69.878906 C 275.792969 69.878906 278.34375 72.253906 278.371094 74.390625 "/>
<path style=" stroke:none;fill-rule:evenodd;fill:rgb(13.699341%,12.199402%,12.5%);fill-opacity:1;" d="M 409.535156 130.714844 L 453.910156 130.714844 L 431.722656 78.183594 Z M 477.613281 164.875 C 478.683594 166.027344 480.699219 167.4375 482.753906 167.4375 L 483.980469 167.429688 L 484.191406 169.851563 L 479.785156 169.859375 L 470.394531 169.929688 L 457.054688 138.441406 L 406.105469 138.441406 L 392.507813 169.929688 L 383.199219 169.929688 L 428.003906 67.449219 L 436.019531 67.449219 "/>
<path style=" stroke:none;fill-rule:nonzero;fill:rgb(13.699341%,12.199402%,12.5%);fill-opacity:1;" d="M 549.710938 140.964844 L 546.984375 140.964844 L 546.984375 138.476563 C 546.695313 138.902344 546.398438 139.277344 546.101563 139.625 C 545.800781 139.960938 545.457031 140.25 545.074219 140.488281 C 544.691406 140.726563 544.261719 140.90625 543.777344 141.042969 C 543.296875 141.167969 542.730469 141.230469 542.089844 141.230469 C 541.234375 141.230469 540.488281 141.101563 539.839844 140.832031 C 539.191406 140.566406 538.648438 140.1875 538.207031 139.710938 C 537.765625 139.230469 537.433594 138.65625 537.207031 137.976563 C 536.980469 137.300781 536.867188 136.546875 536.867188 135.714844 L 536.867188 126.324219 L 539.65625 126.324219 L 539.65625 134.886719 C 539.65625 135.535156 539.714844 136.128906 539.847656 136.65625 C 539.964844 137.1875 540.15625 137.636719 540.410156 138.007813 C 540.667969 138.378906 541 138.664063 541.398438 138.867188 C 541.796875 139.070313 542.28125 139.171875 542.847656 139.171875 C 543.359375 139.171875 543.816406 139.085938 544.222656 138.914063 C 544.628906 138.742188 544.992188 138.511719 545.3125 138.222656 C 545.636719 137.9375 545.925781 137.601563 546.1875 137.214844 C 546.453125 136.828125 546.695313 136.429688 546.921875 136.011719 L 546.921875 126.324219 L 549.710938 126.324219 "/>
<path style=" stroke:none;fill-rule:nonzero;fill:rgb(13.699341%,12.199402%,12.5%);fill-opacity:1;" d="M 553.722656 126.324219 L 556.449219 126.324219 L 556.449219 128.816406 C 556.742188 128.394531 557.03125 128.011719 557.34375 127.660156 C 557.644531 127.316406 557.988281 127.023438 558.367188 126.777344 C 558.753906 126.535156 559.183594 126.347656 559.660156 126.214844 C 560.140625 126.078125 560.703125 126.015625 561.347656 126.015625 C 562.195313 126.015625 562.941406 126.144531 563.597656 126.414063 C 564.253906 126.683594 564.800781 127.0625 565.238281 127.546875 C 565.679688 128.039063 566.011719 128.625 566.230469 129.304688 C 566.453125 129.988281 566.566406 130.746094 566.566406 131.578125 L 566.566406 140.964844 L 563.773438 140.964844 L 563.773438 132.390625 C 563.773438 131.742188 563.714844 131.148438 563.597656 130.621094 C 563.476563 130.105469 563.289063 129.65625 563.023438 129.28125 C 562.761719 128.917969 562.433594 128.625 562.03125 128.421875 C 561.636719 128.222656 561.152344 128.117188 560.585938 128.117188 C 560.066406 128.117188 559.605469 128.203125 559.203125 128.378906 C 558.804688 128.550781 558.441406 128.78125 558.121094 129.066406 C 557.796875 129.355469 557.511719 129.695313 557.246094 130.078125 C 556.996094 130.464844 556.753906 130.859375 556.527344 131.277344 L 556.527344 140.964844 L 553.722656 140.964844 "/>
<path style=" stroke:none;fill-rule:nonzero;fill:rgb(13.699341%,12.199402%,12.5%);fill-opacity:1;" d="M 573.222656 122.472656 L 570.417969 122.472656 L 570.417969 119.222656 L 573.222656 119.222656 Z M 570.417969 126.324219 L 573.222656 126.324219 L 573.222656 140.964844 L 570.417969 140.964844 "/>
<path style=" stroke:none;fill-rule:nonzero;fill:rgb(13.699341%,12.199402%,12.5%);fill-opacity:1;" d="M 578.207031 126.324219 L 582.421875 137.949219 L 586.644531 126.324219 L 589.597656 126.324219 L 583.886719 140.964844 L 580.9375 140.964844 L 575.226563 126.324219 "/>
<path style=" stroke:none;fill-rule:nonzero;fill:rgb(13.699341%,12.199402%,12.5%);fill-opacity:1;" d="M 603.375 139.863281 C 602.914063 140.09375 602.460938 140.296875 602.027344 140.46875 C 601.59375 140.640625 601.152344 140.785156 600.710938 140.894531 C 600.265625 141.015625 599.8125 141.097656 599.347656 141.148438 C 598.878906 141.207031 598.386719 141.230469 597.863281 141.230469 C 596.628906 141.230469 595.542969 141.046875 594.617188 140.671875 C 593.6875 140.289063 592.90625 139.765625 592.277344 139.089844 C 591.648438 138.414063 591.179688 137.601563 590.867188 136.648438 C 590.550781 135.699219 590.390625 134.644531 590.390625 133.488281 C 590.390625 132.390625 590.558594 131.386719 590.886719 130.46875 C 591.222656 129.558594 591.6875 128.769531 592.292969 128.117188 C 592.902344 127.457031 593.636719 126.941406 594.496094 126.570313 C 595.355469 126.203125 596.3125 126.015625 597.371094 126.015625 C 598.332031 126.015625 599.210938 126.179688 600.003906 126.519531 C 600.796875 126.855469 601.484375 127.324219 602.0625 127.929688 C 602.632813 128.527344 603.078125 129.257813 603.394531 130.105469 C 603.710938 130.953125 603.867188 131.894531 603.867188 132.910156 L 603.867188 133.945313 L 593.269531 133.945313 C 593.273438 134.695313 593.402344 135.378906 593.644531 136.027344 C 593.886719 136.671875 594.21875 137.230469 594.644531 137.695313 C 595.066406 138.164063 595.578125 138.535156 596.179688 138.800781 C 596.777344 139.070313 597.4375 139.203125 598.15625 139.203125 C 598.613281 139.203125 599.046875 139.171875 599.457031 139.105469 C 599.867188 139.039063 600.273438 138.949219 600.675781 138.824219 C 601.074219 138.703125 601.472656 138.550781 601.871094 138.371094 C 602.273438 138.195313 602.695313 137.996094 603.136719 137.78125 Z M 601.078125 132.152344 C 601.035156 131.613281 600.9375 131.09375 600.777344 130.597656 C 600.621094 130.105469 600.394531 129.667969 600.089844 129.289063 C 599.789063 128.917969 599.417969 128.617188 598.964844 128.394531 C 598.515625 128.171875 597.972656 128.058594 597.339844 128.058594 C 596.75 128.058594 596.214844 128.171875 595.746094 128.394531 C 595.277344 128.617188 594.875 128.917969 594.546875 129.289063 C 594.21875 129.667969 593.949219 130.105469 593.753906 130.597656 C 593.554688 131.09375 593.4375 131.613281 593.394531 132.152344 "/>
<path style=" stroke:none;fill-rule:nonzero;fill:rgb(13.699341%,12.199402%,12.5%);fill-opacity:1;" d="M 609.523438 129.425781 C 610.121094 128.316406 610.777344 127.472656 611.5 126.890625 C 612.230469 126.304688 613.03125 126.015625 613.902344 126.015625 C 614.335938 126.015625 614.726563 126.066406 615.082031 126.1875 C 615.433594 126.296875 615.824219 126.507813 616.269531 126.8125 L 615.695313 129.335938 C 615.277344 129.019531 614.898438 128.800781 614.554688 128.667969 C 614.203125 128.539063 613.867188 128.476563 613.527344 128.476563 C 613.035156 128.476563 612.578125 128.59375 612.167969 128.828125 C 611.761719 129.066406 611.394531 129.386719 611.082031 129.785156 C 610.761719 130.1875 610.496094 130.65625 610.277344 131.1875 C 610.0625 131.722656 609.90625 132.285156 609.804688 132.878906 L 609.804688 140.964844 L 607 140.964844 L 607 126.324219 L 609.523438 126.324219 "/>
<path style=" stroke:none;fill-rule:nonzero;fill:rgb(13.699341%,12.199402%,12.5%);fill-opacity:1;" d="M 622.972656 126.015625 C 623.636719 126.015625 624.308594 126.078125 625 126.207031 C 625.683594 126.335938 626.425781 126.554688 627.226563 126.875 L 627.046875 128.996094 C 626.367188 128.683594 625.722656 128.433594 625.117188 128.261719 C 624.507813 128.09375 623.871094 128.003906 623.195313 128.003906 C 622.789063 128.003906 622.410156 128.046875 622.050781 128.128906 C 621.699219 128.214844 621.390625 128.34375 621.121094 128.515625 C 620.851563 128.6875 620.640625 128.910156 620.480469 129.183594 C 620.324219 129.449219 620.242188 129.773438 620.242188 130.152344 C 620.242188 130.480469 620.351563 130.757813 620.5625 130.984375 C 620.777344 131.214844 621.0625 131.421875 621.414063 131.609375 C 621.773438 131.796875 622.175781 131.96875 622.625 132.136719 C 623.074219 132.296875 623.53125 132.476563 623.996094 132.664063 C 624.464844 132.859375 624.917969 133.074219 625.367188 133.320313 C 625.816406 133.5625 626.21875 133.851563 626.578125 134.195313 C 626.933594 134.53125 627.214844 134.9375 627.429688 135.402344 C 627.644531 135.867188 627.75 136.417969 627.75 137.054688 C 627.75 137.714844 627.589844 138.300781 627.273438 138.824219 C 626.957031 139.339844 626.542969 139.777344 626.027344 140.132813 C 625.515625 140.492188 624.933594 140.761719 624.285156 140.949219 C 623.636719 141.136719 622.988281 141.230469 622.335938 141.230469 C 621.46875 141.230469 620.636719 141.160156 619.839844 141.023438 C 619.042969 140.890625 618.289063 140.605469 617.574219 140.179688 L 617.753906 137.949219 C 618.140625 138.179688 618.5 138.371094 618.84375 138.527344 C 619.1875 138.691406 619.523438 138.820313 619.867188 138.921875 C 620.210938 139.027344 620.554688 139.105469 620.902344 139.148438 C 621.257813 139.203125 621.632813 139.230469 622.042969 139.230469 C 622.445313 139.230469 622.832031 139.179688 623.195313 139.082031 C 623.5625 138.980469 623.878906 138.835938 624.152344 138.65625 C 624.425781 138.476563 624.640625 138.253906 624.808594 137.996094 C 624.96875 137.742188 625.050781 137.453125 625.050781 137.136719 C 625.050781 136.730469 624.941406 136.386719 624.726563 136.101563 C 624.507813 135.8125 624.222656 135.558594 623.863281 135.335938 C 623.507813 135.113281 623.105469 134.914063 622.652344 134.734375 C 622.207031 134.5625 621.742188 134.371094 621.269531 134.1875 C 620.789063 133.996094 620.328125 133.796875 619.882813 133.574219 C 619.429688 133.347656 619.03125 133.085938 618.671875 132.773438 C 618.316406 132.46875 618.027344 132.109375 617.8125 131.695313 C 617.59375 131.277344 617.484375 130.785156 617.484375 130.210938 C 617.484375 129.539063 617.632813 128.941406 617.921875 128.417969 C 618.21875 127.890625 618.613281 127.449219 619.117188 127.097656 C 619.621094 126.742188 620.203125 126.46875 620.871094 126.289063 C 621.53125 126.105469 622.230469 126.015625 622.972656 126.015625 "/>
<path style=" stroke:none;fill-rule:nonzero;fill:rgb(13.699341%,12.199402%,12.5%);fill-opacity:1;" d="M 633.648438 122.472656 L 630.847656 122.472656 L 630.847656 119.222656 L 633.648438 119.222656 Z M 630.847656 126.324219 L 633.648438 126.324219 L 633.648438 140.964844 L 630.847656 140.964844 "/>
<path style=" stroke:none;fill-rule:nonzero;fill:rgb(13.699341%,12.199402%,12.5%);fill-opacity:1;" d="M 640.636719 121.636719 L 641.542969 121.636719 L 641.542969 126.324219 L 644.925781 126.324219 L 644.925781 128.476563 L 641.542969 128.476563 L 641.542969 136.382813 C 641.542969 136.824219 641.5625 137.214844 641.609375 137.542969 C 641.652344 137.878906 641.746094 138.152344 641.878906 138.367188 C 642.007813 138.585938 642.195313 138.746094 642.4375 138.859375 C 642.675781 138.964844 642.984375 139.019531 643.367188 139.019531 C 643.59375 139.019531 643.796875 139.011719 643.972656 138.984375 C 644.15625 138.957031 644.328125 138.917969 644.496094 138.859375 C 644.664063 138.808594 644.835938 138.746094 645.007813 138.679688 C 645.179688 138.609375 645.378906 138.527344 645.59375 138.441406 L 645.773438 140.566406 C 645.496094 140.675781 645.234375 140.773438 645.003906 140.855469 C 644.761719 140.9375 644.527344 141.011719 644.289063 141.058594 C 644.050781 141.117188 643.804688 141.15625 643.539063 141.1875 C 643.273438 141.222656 642.988281 141.230469 642.675781 141.230469 C 642.070313 141.230469 641.527344 141.136719 641.050781 140.949219 C 640.5625 140.761719 640.15625 140.488281 639.816406 140.128906 C 639.472656 139.765625 639.210938 139.316406 639.027344 138.792969 C 638.847656 138.261719 638.753906 137.652344 638.753906 136.957031 L 638.753906 128.476563 L 636.203125 128.476563 L 636.203125 126.324219 L 638.753906 126.324219 L 638.753906 123.433594 "/>
<path style=" stroke:none;fill-rule:nonzero;fill:rgb(13.699341%,12.199402%,12.5%);fill-opacity:1;" d="M 646.199219 126.324219 L 649.183594 126.324219 L 653.394531 137.566406 L 657.617188 126.324219 L 660.570313 126.324219 L 654.136719 142.386719 C 653.875 143.03125 653.585938 143.652344 653.261719 144.265625 C 652.9375 144.875 652.5625 145.414063 652.15625 145.882813 C 651.746094 146.359375 651.277344 146.742188 650.761719 147.027344 C 650.238281 147.316406 649.660156 147.457031 649.019531 147.457031 C 648.839844 147.457031 648.632813 147.457031 648.394531 147.449219 C 648.160156 147.449219 647.90625 147.433594 647.640625 147.414063 C 647.371094 147.394531 647.105469 147.363281 646.839844 147.316406 C 646.570313 147.273438 646.316406 147.210938 646.085938 147.132813 L 646.265625 144.964844 C 646.546875 145.105469 646.886719 145.191406 647.269531 145.226563 C 647.652344 145.261719 648.035156 145.273438 648.421875 145.273438 C 648.734375 145.273438 649.015625 145.191406 649.277344 145.023438 C 649.535156 144.855469 649.785156 144.625 650.011719 144.332031 C 650.238281 144.035156 650.460938 143.683594 650.664063 143.285156 C 650.875 142.886719 651.074219 142.449219 651.273438 141.972656 L 651.964844 140.328125 "/>
<path style=" stroke:none;fill-rule:nonzero;fill:rgb(13.699341%,12.199402%,12.5%);fill-opacity:1;" d="M 543.761719 171.492188 C 542.558594 171.492188 541.484375 171.289063 540.539063 170.894531 C 539.597656 170.492188 538.796875 169.941406 538.144531 169.257813 C 537.488281 168.5625 536.996094 167.75 536.652344 166.824219 C 536.316406 165.894531 536.140625 164.894531 536.140625 163.839844 C 536.140625 162.789063 536.316406 161.808594 536.652344 160.886719 C 536.996094 159.96875 537.488281 159.164063 538.144531 158.488281 C 538.796875 157.804688 539.597656 157.261719 540.539063 156.867188 C 541.484375 156.472656 542.558594 156.277344 543.761719 156.277344 C 544.980469 156.277344 546.066406 156.480469 547.019531 156.878906 C 547.96875 157.28125 548.777344 157.820313 549.425781 158.496094 C 550.082031 159.179688 550.574219 159.980469 550.929688 160.902344 C 551.269531 161.824219 551.441406 162.800781 551.441406 163.839844 C 551.441406 164.894531 551.269531 165.894531 550.929688 166.824219 C 550.574219 167.75 550.082031 168.5625 549.425781 169.257813 C 548.777344 169.941406 547.96875 170.492188 547.019531 170.894531 C 546.066406 171.289063 544.980469 171.492188 543.761719 171.492188 M 543.761719 169.34375 C 544.503906 169.34375 545.164063 169.199219 545.746094 168.921875 C 546.335938 168.636719 546.828125 168.25 547.230469 167.761719 C 547.636719 167.261719 547.949219 166.679688 548.167969 166.007813 C 548.386719 165.332031 548.492188 164.609375 548.492188 163.839844 C 548.492188 163.089844 548.386719 162.390625 548.167969 161.734375 C 547.949219 161.078125 547.636719 160.515625 547.230469 160.023438 C 546.828125 159.53125 546.335938 159.148438 545.746094 158.863281 C 545.164063 158.585938 544.503906 158.441406 543.761719 158.441406 C 543.054688 158.441406 542.410156 158.585938 541.84375 158.863281 C 541.277344 159.148438 540.789063 159.53125 540.386719 160.023438 C 539.984375 160.515625 539.667969 161.078125 539.449219 161.734375 C 539.234375 162.390625 539.125 163.089844 539.125 163.839844 C 539.125 164.609375 539.234375 165.332031 539.449219 166.007813 C 539.667969 166.679688 539.984375 167.261719 540.386719 167.761719 C 540.789063 168.25 541.277344 168.636719 541.84375 168.921875 C 542.410156 169.199219 543.054688 169.34375 543.761719 169.34375 "/>
<path style=" stroke:none;fill-rule:nonzero;fill:rgb(13.699341%,12.199402%,12.5%);fill-opacity:1;" d="M 555.359375 158.734375 L 552.839844 158.734375 L 552.839844 156.582031 L 555.359375 156.582031 L 555.359375 155.101563 C 555.359375 154.222656 555.453125 153.425781 555.632813 152.71875 C 555.816406 152 556.105469 151.398438 556.492188 150.890625 C 556.875 150.386719 557.367188 149.996094 557.976563 149.730469 C 558.574219 149.453125 559.300781 149.320313 560.140625 149.320313 C 560.585938 149.320313 561.058594 149.359375 561.554688 149.4375 C 562.054688 149.515625 562.511719 149.632813 562.925781 149.777344 L 562.746094 151.902344 C 562.382813 151.765625 562.058594 151.664063 561.769531 151.605469 C 561.480469 151.546875 561.152344 151.519531 560.777344 151.519531 C 560.242188 151.519531 559.808594 151.613281 559.460938 151.808594 C 559.125 152 558.855469 152.265625 558.660156 152.605469 C 558.46875 152.945313 558.339844 153.34375 558.273438 153.804688 C 558.203125 154.265625 558.167969 154.765625 558.167969 155.308594 L 558.167969 156.582031 L 561.179688 156.582031 L 561.179688 158.734375 L 558.167969 158.734375 L 558.167969 171.222656 L 555.363281 171.222656 "/>
<path style=" stroke:none;fill-rule:nonzero;fill:rgb(13.699341%,12.199402%,12.5%);fill-opacity:1;" d="M 576.984375 156.277344 C 577.648438 156.277344 578.320313 156.34375 579.011719 156.46875 C 579.691406 156.59375 580.4375 156.816406 581.238281 157.136719 L 581.0625 159.257813 C 580.382813 158.945313 579.734375 158.695313 579.128906 158.523438 C 578.515625 158.351563 577.878906 158.265625 577.207031 158.265625 C 576.800781 158.265625 576.421875 158.304688 576.0625 158.390625 C 575.710938 158.472656 575.398438 158.605469 575.132813 158.777344 C 574.863281 158.949219 574.648438 159.171875 574.492188 159.441406 C 574.335938 159.714844 574.253906 160.035156 574.253906 160.417969 C 574.253906 160.742188 574.363281 161.019531 574.574219 161.246094 C 574.785156 161.476563 575.070313 161.683594 575.425781 161.871094 C 575.785156 162.058594 576.183594 162.226563 576.636719 162.394531 C 577.085938 162.558594 577.539063 162.734375 578.007813 162.929688 C 578.476563 163.121094 578.929688 163.339844 579.382813 163.578125 C 579.828125 163.824219 580.230469 164.113281 580.589844 164.453125 C 580.941406 164.796875 581.226563 165.203125 581.4375 165.667969 C 581.652344 166.132813 581.757813 166.679688 581.757813 167.3125 C 581.757813 167.976563 581.605469 168.5625 581.285156 169.085938 C 580.96875 169.597656 580.554688 170.039063 580.039063 170.394531 C 579.523438 170.753906 578.941406 171.023438 578.296875 171.210938 C 577.648438 171.398438 577.003906 171.492188 576.347656 171.492188 C 575.476563 171.492188 574.644531 171.425781 573.851563 171.289063 C 573.050781 171.148438 572.304688 170.867188 571.589844 170.441406 L 571.765625 168.214844 C 572.148438 168.441406 572.511719 168.636719 572.855469 168.792969 C 573.199219 168.949219 573.535156 169.078125 573.875 169.1875 C 574.21875 169.289063 574.566406 169.367188 574.910156 169.414063 C 575.269531 169.464844 575.644531 169.492188 576.050781 169.492188 C 576.457031 169.492188 576.84375 169.4375 577.207031 169.34375 C 577.570313 169.242188 577.890625 169.101563 578.164063 168.914063 C 578.4375 168.734375 578.648438 168.515625 578.816406 168.257813 C 578.980469 168 579.0625 167.71875 579.0625 167.398438 C 579.0625 166.992188 578.953125 166.648438 578.738281 166.359375 C 578.515625 166.074219 578.230469 165.816406 577.878906 165.597656 C 577.515625 165.371094 577.113281 165.179688 576.664063 165 C 576.214844 164.820313 575.753906 164.632813 575.28125 164.445313 C 574.804688 164.261719 574.339844 164.058594 573.890625 163.835938 C 573.4375 163.613281 573.042969 163.347656 572.679688 163.039063 C 572.328125 162.730469 572.039063 162.371094 571.820313 161.957031 C 571.601563 161.542969 571.496094 161.042969 571.496094 160.472656 C 571.496094 159.800781 571.644531 159.199219 571.933594 158.683594 C 572.222656 158.15625 572.628906 157.714844 573.128906 157.359375 C 573.632813 157.003906 574.21875 156.734375 574.878906 156.546875 C 575.539063 156.367188 576.238281 156.277344 576.984375 156.277344 "/>
<path style=" stroke:none;fill-rule:nonzero;fill:rgb(13.699341%,12.199402%,12.5%);fill-opacity:1;" d="M 591.636719 171.492188 C 590.433594 171.492188 589.359375 171.289063 588.410156 170.894531 C 587.46875 170.492188 586.671875 169.941406 586.019531 169.257813 C 585.363281 168.5625 584.867188 167.75 584.527344 166.824219 C 584.1875 165.894531 584.015625 164.894531 584.015625 163.839844 C 584.015625 162.789063 584.1875 161.808594 584.527344 160.886719 C 584.867188 159.96875 585.363281 159.164063 586.019531 158.488281 C 586.671875 157.804688 587.46875 157.261719 588.410156 156.867188 C 589.359375 156.472656 590.433594 156.277344 591.636719 156.277344 C 592.851563 156.277344 593.9375 156.480469 594.890625 156.878906 C 595.84375 157.28125 596.648438 157.820313 597.300781 158.496094 C 597.949219 159.179688 598.449219 159.980469 598.796875 160.902344 C 599.144531 161.824219 599.316406 162.800781 599.316406 163.839844 C 599.316406 164.894531 599.144531 165.894531 598.796875 166.824219 C 598.449219 167.75 597.949219 168.5625 597.300781 169.257813 C 596.648438 169.941406 595.84375 170.492188 594.890625 170.894531 C 593.9375 171.289063 592.851563 171.492188 591.636719 171.492188 M 591.636719 169.34375 C 592.382813 169.34375 593.039063 169.199219 593.617188 168.921875 C 594.207031 168.636719 594.699219 168.25 595.105469 167.761719 C 595.511719 167.261719 595.820313 166.679688 596.042969 166.007813 C 596.257813 165.332031 596.363281 164.609375 596.363281 163.839844 C 596.363281 163.089844 596.257813 162.390625 596.042969 161.734375 C 595.820313 161.078125 595.511719 160.515625 595.105469 160.023438 C 594.699219 159.53125 594.207031 159.148438 593.617188 158.863281 C 593.039063 158.585938 592.382813 158.441406 591.636719 158.441406 C 590.925781 158.441406 590.28125 158.585938 589.71875 158.863281 C 589.148438 159.148438 588.664063 159.53125 588.257813 160.023438 C 587.855469 160.515625 587.539063 161.078125 587.324219 161.734375 C 587.105469 162.390625 587 163.089844 587 163.839844 C 587 164.609375 587.105469 165.332031 587.324219 166.007813 C 587.539063 166.679688 587.855469 167.261719 588.257813 167.761719 C 588.664063 168.25 589.148438 168.636719 589.71875 168.921875 C 590.28125 169.199219 590.925781 169.34375 591.636719 169.34375 "/>
<path style=" stroke:none;fill-rule:nonzero;fill:rgb(13.699341%,12.199402%,12.5%);fill-opacity:1;" d="M 615.203125 171.222656 L 612.472656 171.222656 L 612.472656 168.734375 C 612.1875 169.160156 611.894531 169.539063 611.59375 169.882813 C 611.285156 170.226563 610.949219 170.515625 610.566406 170.75 C 610.1875 170.988281 609.753906 171.171875 609.269531 171.300781 C 608.785156 171.425781 608.222656 171.492188 607.578125 171.492188 C 606.726563 171.492188 605.980469 171.363281 605.332031 171.097656 C 604.683594 170.824219 604.140625 170.453125 603.699219 169.976563 C 603.261719 169.496094 602.925781 168.914063 602.695313 168.238281 C 602.46875 167.5625 602.359375 166.804688 602.359375 165.976563 L 602.359375 156.582031 L 605.148438 156.582031 L 605.148438 165.144531 C 605.148438 165.800781 605.210938 166.390625 605.335938 166.914063 C 605.457031 167.449219 605.648438 167.898438 605.902344 168.269531 C 606.160156 168.636719 606.488281 168.925781 606.886719 169.128906 C 607.289063 169.332031 607.769531 169.429688 608.339844 169.429688 C 608.851563 169.429688 609.308594 169.347656 609.714844 169.175781 C 610.121094 169 610.480469 168.769531 610.804688 168.480469 C 611.128906 168.195313 611.414063 167.859375 611.679688 167.476563 C 611.941406 167.09375 612.1875 166.6875 612.410156 166.273438 L 612.410156 156.582031 L 615.203125 156.582031 "/>
<path style=" stroke:none;fill-rule:nonzero;fill:rgb(13.699341%,12.199402%,12.5%);fill-opacity:1;" d="M 622.1875 151.898438 L 623.097656 151.898438 L 623.097656 156.582031 L 626.476563 156.582031 L 626.476563 158.738281 L 623.097656 158.738281 L 623.097656 166.644531 C 623.097656 167.085938 623.113281 167.476563 623.160156 167.808594 C 623.207031 168.136719 623.300781 168.410156 623.429688 168.625 C 623.5625 168.847656 623.746094 169.007813 623.984375 169.117188 C 624.226563 169.226563 624.53125 169.28125 624.917969 169.28125 C 625.144531 169.28125 625.347656 169.269531 625.527344 169.246094 C 625.707031 169.222656 625.878906 169.179688 626.050781 169.125 C 626.21875 169.066406 626.386719 169.007813 626.558594 168.941406 C 626.730469 168.871094 626.929688 168.792969 627.144531 168.703125 L 627.320313 170.824219 C 627.046875 170.9375 626.785156 171.035156 626.554688 171.117188 C 626.316406 171.203125 626.074219 171.273438 625.839844 171.324219 C 625.601563 171.378906 625.351563 171.421875 625.089844 171.449219 C 624.828125 171.480469 624.539063 171.492188 624.226563 171.492188 C 623.621094 171.492188 623.078125 171.398438 622.601563 171.210938 C 622.117188 171.023438 621.710938 170.75 621.371094 170.390625 C 621.027344 170.027344 620.765625 169.578125 620.578125 169.054688 C 620.394531 168.523438 620.304688 167.914063 620.304688 167.222656 L 620.304688 158.738281 L 617.753906 158.738281 L 617.753906 156.582031 L 620.304688 156.582031 L 620.304688 153.695313 "/>
<path style=" stroke:none;fill-rule:nonzero;fill:rgb(13.699341%,12.199402%,12.5%);fill-opacity:1;" d="M 629.757813 149.480469 L 632.5625 149.480469 L 632.5625 159.082031 C 632.832031 158.652344 633.109375 158.273438 633.410156 157.921875 C 633.707031 157.574219 634.039063 157.285156 634.414063 157.042969 C 634.789063 156.796875 635.21875 156.613281 635.703125 156.476563 C 636.175781 156.34375 636.738281 156.277344 637.382813 156.277344 C 638.234375 156.277344 638.980469 156.410156 639.636719 156.675781 C 640.289063 156.945313 640.835938 157.324219 641.277344 157.808594 C 641.71875 158.300781 642.046875 158.890625 642.269531 159.566406 C 642.488281 160.25 642.605469 161.011719 642.605469 161.839844 L 642.605469 171.230469 L 639.8125 171.230469 L 639.8125 162.65625 C 639.8125 162 639.75 161.417969 639.636719 160.886719 C 639.515625 160.367188 639.328125 159.914063 639.0625 159.546875 C 638.800781 159.175781 638.46875 158.890625 638.070313 158.6875 C 637.675781 158.480469 637.1875 158.382813 636.621094 158.382813 C 636.101563 158.382813 635.644531 158.46875 635.238281 158.640625 C 634.84375 158.8125 634.480469 159.046875 634.160156 159.328125 C 633.835938 159.617188 633.542969 159.953125 633.285156 160.339844 C 633.035156 160.726563 632.792969 161.125 632.5625 161.542969 L 632.5625 171.230469 L 629.757813 171.230469 "/>
<path style=" stroke:none;fill-rule:nonzero;fill:rgb(13.699341%,12.199402%,12.5%);fill-opacity:1;" d="M 664.042969 171.222656 L 664.042969 169 C 663.511719 169.75 662.859375 170.355469 662.078125 170.808594 C 661.304688 171.265625 660.40625 171.492188 659.390625 171.492188 C 658.519531 171.492188 657.785156 171.375 657.183594 171.125 C 656.582031 170.875 656.085938 170.558594 655.703125 170.167969 C 655.320313 169.777344 655.054688 169.34375 654.882813 168.863281 C 654.71875 168.382813 654.628906 167.902344 654.628906 167.429688 C 654.628906 166.777344 654.742188 166.191406 654.972656 165.6875 C 655.199219 165.171875 655.519531 164.730469 655.929688 164.351563 C 656.335938 163.972656 656.828125 163.648438 657.394531 163.375 C 657.960938 163.109375 658.585938 162.898438 659.257813 162.730469 C 659.925781 162.566406 660.640625 162.453125 661.390625 162.375 C 662.144531 162.300781 662.914063 162.265625 663.703125 162.265625 L 663.703125 161.109375 C 663.703125 160.605469 663.636719 160.183594 663.511719 159.84375 C 663.382813 159.5 663.191406 159.226563 662.933594 159.019531 C 662.675781 158.8125 662.355469 158.664063 661.980469 158.574219 C 661.597656 158.488281 661.148438 158.441406 660.632813 158.441406 C 660.222656 158.441406 659.835938 158.46875 659.480469 158.519531 C 659.121094 158.578125 658.765625 158.667969 658.414063 158.796875 C 658.058594 158.925781 657.6875 159.09375 657.308594 159.289063 C 656.929688 159.496094 656.5 159.75 656.027344 160.039063 L 655.90625 157.519531 C 656.355469 157.3125 656.769531 157.132813 657.164063 156.976563 C 657.5625 156.828125 657.960938 156.695313 658.347656 156.59375 C 658.738281 156.488281 659.136719 156.410156 659.542969 156.355469 C 659.949219 156.304688 660.386719 156.277344 660.859375 156.277344 C 661.632813 156.277344 662.363281 156.332031 663.046875 156.464844 C 663.730469 156.582031 664.335938 156.816406 664.847656 157.15625 C 665.363281 157.5 665.769531 157.976563 666.0625 158.59375 C 666.359375 159.214844 666.507813 160.011719 666.507813 160.996094 L 666.507813 168.589844 C 666.507813 169.046875 666.535156 169.527344 666.589844 170.015625 C 666.644531 170.507813 666.726563 170.90625 666.832031 171.222656 Z M 663.703125 163.839844 C 662.855469 163.839844 662.054688 163.898438 661.304688 164.023438 C 660.554688 164.148438 659.890625 164.351563 659.324219 164.621094 C 658.753906 164.902344 658.308594 165.261719 657.976563 165.703125 C 657.648438 166.140625 657.480469 166.679688 657.480469 167.3125 C 657.480469 168.050781 657.703125 168.625 658.152344 169.035156 C 658.601563 169.449219 659.230469 169.65625 660.023438 169.65625 C 660.472656 169.65625 660.871094 169.589844 661.222656 169.453125 C 661.570313 169.320313 661.898438 169.144531 662.183594 168.921875 C 662.480469 168.699219 662.738281 168.441406 662.984375 168.140625 C 663.226563 167.84375 663.464844 167.542969 663.703125 167.222656 "/>
<path style=" stroke:none;fill-rule:nonzero;fill:rgb(13.699341%,12.199402%,12.5%);fill-opacity:1;" d="M 671.121094 158.734375 L 668.597656 158.734375 L 668.597656 156.582031 L 671.121094 156.582031 L 671.121094 155.101563 C 671.121094 154.222656 671.214844 153.425781 671.394531 152.71875 C 671.574219 152 671.863281 151.398438 672.246094 150.890625 C 672.636719 150.386719 673.128906 149.996094 673.730469 149.730469 C 674.335938 149.453125 675.058594 149.320313 675.898438 149.320313 C 676.347656 149.320313 676.8125 149.359375 677.3125 149.4375 C 677.8125 149.515625 678.269531 149.632813 678.6875 149.777344 L 678.507813 151.902344 C 678.140625 151.765625 677.816406 151.664063 677.527344 151.605469 C 677.242188 151.546875 676.910156 151.519531 676.539063 151.519531 C 676 151.519531 675.566406 151.613281 675.222656 151.808594 C 674.882813 152 674.613281 152.265625 674.421875 152.605469 C 674.230469 152.945313 674.097656 153.34375 674.03125 153.804688 C 673.960938 154.265625 673.925781 154.765625 673.925781 155.308594 L 673.925781 156.582031 L 676.9375 156.582031 L 676.9375 158.734375 L 673.925781 158.734375 L 673.925781 171.222656 L 671.121094 171.222656 "/>
<path style=" stroke:none;fill-rule:nonzero;fill:rgb(13.699341%,12.199402%,12.5%);fill-opacity:1;" d="M 681.632813 159.6875 C 682.230469 158.578125 682.890625 157.734375 683.613281 157.152344 C 684.34375 156.570313 685.144531 156.277344 686.015625 156.277344 C 686.449219 156.277344 686.839844 156.332031 687.195313 156.445313 C 687.542969 156.558594 687.9375 156.769531 688.386719 157.078125 L 687.804688 159.597656 C 687.394531 159.285156 687.011719 159.058594 686.667969 158.925781 C 686.320313 158.804688 685.980469 158.734375 685.640625 158.734375 C 685.148438 158.734375 684.691406 158.855469 684.28125 159.09375 C 683.871094 159.328125 683.507813 159.644531 683.191406 160.046875 C 682.875 160.449219 682.613281 160.914063 682.394531 161.449219 C 682.179688 161.984375 682.019531 162.550781 681.917969 163.144531 L 681.917969 171.230469 L 679.113281 171.230469 L 679.113281 156.582031 L 681.632813 156.582031 "/>
<path style=" stroke:none;fill-rule:nonzero;fill:rgb(13.699341%,12.199402%,12.5%);fill-opacity:1;" d="M 693.277344 152.730469 L 690.46875 152.730469 L 690.46875 149.484375 L 693.277344 149.484375 Z M 690.46875 156.582031 L 693.273438 156.582031 L 693.273438 171.230469 L 690.46875 171.230469 "/>
<path style=" stroke:none;fill-rule:nonzero;fill:rgb(13.699341%,12.199402%,12.5%);fill-opacity:1;" d="M 703.878906 171.492188 C 702.71875 171.492188 701.675781 171.308594 700.753906 170.933594 C 699.835938 170.550781 699.058594 170.03125 698.421875 169.367188 C 697.777344 168.699219 697.289063 167.910156 696.949219 166.996094 C 696.609375 166.089844 696.4375 165.101563 696.4375 164.03125 C 696.4375 162.90625 696.617188 161.871094 696.96875 160.921875 C 697.332031 159.980469 697.835938 159.160156 698.492188 158.472656 C 699.152344 157.777344 699.941406 157.238281 700.863281 156.855469 C 701.789063 156.46875 702.820313 156.277344 703.941406 156.277344 C 704.742188 156.277344 705.449219 156.339844 706.0625 156.453125 C 706.675781 156.574219 707.261719 156.71875 707.832031 156.886719 L 707.769531 159.195313 C 707.148438 158.914063 706.566406 158.71875 706.019531 158.605469 C 705.476563 158.496094 704.914063 158.441406 704.328125 158.441406 C 703.558594 158.441406 702.867188 158.578125 702.261719 158.855469 C 701.652344 159.117188 701.132813 159.5 700.703125 159.988281 C 700.269531 160.46875 699.941406 161.054688 699.714844 161.734375 C 699.488281 162.417969 699.378906 163.160156 699.378906 163.976563 C 699.378906 164.765625 699.488281 165.488281 699.714844 166.148438 C 699.941406 166.804688 700.269531 167.367188 700.703125 167.84375 C 701.132813 168.316406 701.65625 168.691406 702.273438 168.945313 C 702.894531 169.210938 703.589844 169.34375 704.355469 169.34375 C 704.945313 169.34375 705.519531 169.289063 706.078125 169.171875 C 706.628906 169.058594 707.242188 168.871094 707.917969 168.613281 L 707.976563 170.824219 C 707.605469 170.957031 707.242188 171.0625 706.910156 171.144531 C 706.570313 171.230469 706.238281 171.300781 705.914063 171.351563 C 705.585938 171.410156 705.257813 171.445313 704.929688 171.46875 C 704.597656 171.484375 704.25 171.492188 703.878906 171.492188 "/>
<path style=" stroke:none;fill-rule:nonzero;fill:rgb(13.699341%,12.199402%,12.5%);fill-opacity:1;" d="M 719.492188 171.222656 L 719.492188 169 C 718.964844 169.75 718.3125 170.355469 717.53125 170.808594 C 716.757813 171.265625 715.859375 171.492188 714.84375 171.492188 C 713.972656 171.492188 713.238281 171.375 712.632813 171.125 C 712.03125 170.875 711.535156 170.558594 711.15625 170.167969 C 710.777344 169.777344 710.503906 169.34375 710.335938 168.863281 C 710.171875 168.382813 710.082031 167.902344 710.082031 167.429688 C 710.082031 166.777344 710.195313 166.191406 710.421875 165.6875 C 710.648438 165.171875 710.96875 164.730469 711.378906 164.351563 C 711.789063 163.972656 712.28125 163.648438 712.847656 163.375 C 713.414063 163.109375 714.035156 162.898438 714.710938 162.730469 C 715.378906 162.566406 716.089844 162.453125 716.839844 162.375 C 717.597656 162.300781 718.363281 162.265625 719.152344 162.265625 L 719.152344 161.109375 C 719.152344 160.605469 719.089844 160.183594 718.964844 159.84375 C 718.835938 159.5 718.644531 159.226563 718.386719 159.019531 C 718.128906 158.8125 717.808594 158.664063 717.429688 158.574219 C 717.050781 158.488281 716.601563 158.441406 716.089844 158.441406 C 715.671875 158.441406 715.285156 158.46875 714.933594 158.519531 C 714.570313 158.578125 714.21875 158.667969 713.863281 158.796875 C 713.507813 158.925781 713.144531 159.09375 712.761719 159.289063 C 712.382813 159.496094 711.949219 159.75 711.480469 160.039063 L 711.359375 157.519531 C 711.804688 157.3125 712.226563 157.132813 712.621094 156.976563 C 713.015625 156.828125 713.410156 156.695313 713.800781 156.59375 C 714.1875 156.488281 714.589844 156.410156 714.996094 156.355469 C 715.398438 156.304688 715.839844 156.277344 716.3125 156.277344 C 717.085938 156.277344 717.8125 156.332031 718.496094 156.464844 C 719.1875 156.582031 719.789063 156.816406 720.300781 157.15625 C 720.8125 157.5 721.222656 157.976563 721.515625 158.59375 C 721.8125 159.214844 721.960938 160.011719 721.960938 160.996094 L 721.960938 168.589844 C 721.960938 169.046875 721.984375 169.527344 722.039063 170.015625 C 722.097656 170.507813 722.175781 170.90625 722.285156 171.222656 Z M 719.152344 163.839844 C 718.304688 163.839844 717.507813 163.898438 716.757813 164.023438 C 716.007813 164.148438 715.34375 164.351563 714.773438 164.621094 C 714.210938 164.902344 713.757813 165.261719 713.429688 165.703125 C 713.101563 166.140625 712.933594 166.679688 712.933594 167.3125 C 712.933594 168.050781 713.15625 168.625 713.609375 169.035156 C 714.058594 169.449219 714.679688 169.65625 715.480469 169.65625 C 715.925781 169.65625 716.324219 169.589844 716.675781 169.453125 C 717.023438 169.320313 717.347656 169.144531 717.640625 168.921875 C 717.929688 168.699219 718.191406 168.441406 718.4375 168.140625 C 718.683594 167.84375 718.921875 167.542969 719.152344 167.222656 "/>
<path style=" stroke:none;fill-rule:evenodd;fill:rgb(0%,18.399048%,40.39917%);fill-opacity:1;" d="M 749.996094 79.84375 C 646.957031 105.726563 586.589844 -25.445313 535.019531 76.464844 C 589.863281 35.027344 680.519531 113.503906 749.996094 79.84375 "/>
<path style=" stroke:none;fill-rule:evenodd;fill:rgb(66.299438%,5.499268%,7.499695%);fill-opacity:1;" d="M 751.121094 50.582031 C 660.09375 101.089844 530.617188 -1.910156 532.765625 87.617188 C 569.703125 54.058594 708.792969 104.269531 751.121094 50.582031 "/>
<path style=" stroke:none;fill-rule:evenodd;fill:rgb(96.899414%,57.998657%,11.399841%);fill-opacity:1;" d="M 702.925781 52.929688 C 552.925781 14.871094 532.03125 40.53125 532.753906 87.5625 C 532.753906 87.5625 541.769531 15.996094 702.925781 52.929688 "/>
<path style=" stroke:none;fill-rule:nonzero;fill:rgb(13.699341%,12.199402%,12.5%);fill-opacity:1;" d="M 513.421875 171.613281 L 516.179688 171.613281 L 516.179688 34.332031 L 513.421875 34.332031 L 513.421875 171.613281 "/>
</g>
</svg>
